<svg version="1.1" xmlns="http://www.w3.org/2000/svg" xmlns:xlink="http://www.w3.org/1999/xlink" x="0px" y="0px"  width="30px" height="30px" viewBox="-7.8 -6.6 30 30" enable-background="new -7.8 -6.6 30 30" xml:space="preserve" preserveAspectRatio="xMinYMin meet">
	<path fill="#5D6C77" d="M19.3,17.3l0.5-3.8L19-2.5c0-0.9-0.4-4-1.8-4.1H-2.6c-1.7,0.1-2.1,3.1-2,4.1l-1,16.4l0.4,3.3 c-0.3,0.1-0.6,0.4-0.6,0.8v1.6c0,0.4,0.4,0.8,0.8,0.8h2.4v2.1c0,0.5,0.4,0.8,0.8,0.8h1.7C0.6,23.4,1,23,1,22.6v-2.1h12.8v2 c0,0.4,0.4,0.8,0.8,0.8h1.7c0.5,0,0.8-0.4,0.8-0.8v-2h1.9c0.5,0,0.8-0.4,0.8-0.8v-1.6C19.9,17.7,19.6,17.3,19.3,17.3z M17.1-4.4h0.6 c0.2,0,0.4,0.2,0.4,0.4c0,0.2-0.1,0.4-0.4,0.4h-0.6c-0.2,0-0.4-0.1-0.4-0.4C16.7-4.2,16.9-4.4,17.1-4.4z M-1.8-4.9 c0-0.2,0.4-0.5,0.7-0.5h16.9c0.2,0,0.5,0.2,0.5,0.4l0.2,2.4c0,0.2-0.5,0.4-0.7,0.4H-1.7c-0.2,0-0.4-0.2-0.4-0.4L-1.8-4.9z M-3.5-4.3 h0.6c0.2,0,0.4,0.2,0.4,0.4c0,0.2-0.2,0.4-0.4,0.4h-0.6c-0.2,0-0.4-0.1-0.4-0.4C-4-4.1-3.8-4.3-3.5-4.3z M-1.6,16.3 c0,0.2-0.1,0.5-0.4,0.5h-1.2c-0.2,0-0.4-0.2-0.4-0.5v-0.9c0-0.2,0.2-0.5,0.4-0.5H-2c0.2,0,0.4,0.1,0.4,0.5V16.3L-1.6,16.3z M1,16.4 c0,0.2-0.1,0.4-0.4,0.4h-1.2c-0.2,0-0.4-0.2-0.4-0.4v-0.9c0-0.2,0.1-0.4,0.4-0.4h1.2C0.8,15,1,15.1,1,15.4V16.4L1,16.4z M15.6,16.3 c0,0.2-0.1,0.5-0.4,0.5H14c-0.2,0-0.4-0.2-0.4-0.5v-0.9c0-0.2,0.2-0.5,0.4-0.5h1.2c0.2,0,0.4,0.2,0.4,0.5V16.3z M18.1,16.3 c0,0.2-0.1,0.5-0.4,0.5h-1.2c-0.2,0-0.4-0.2-0.4-0.5v-0.9c0-0.2,0.1-0.5,0.4-0.5h1.2c0.2,0,0.4,0.2,0.4,0.5V16.3z M17.1,11.2H-2.4 c-0.7,0-1.8-0.5-1.8-1.3l0.4-9.7c0-0.8,0.8-1.3,1.4-1.3h19.6c0.7,0,1.2,0.6,1.2,1.3l0.3,9.8C18.7,10.6,17.8,11.2,17.1,11.2z"/>
</svg>