<svg version="1.1" xmlns="http://www.w3.org/2000/svg" xmlns:xlink="http://www.w3.org/1999/xlink" x="0px" y="0px"  width="30px" height="30px" viewBox="-7.3 -6.6 30 30" enable-background="new -7.3 -6.6 30 30" xml:space="preserve" preserveAspectRatio="xMinYMin meet">
	<path fill="#00539F" d="M21,4.4h-1.4c-0.2,0-0.4,0.1-0.4,0.4v2L19,6.6l-0.6,0.1l-1.1-2.9l-0.1-4.7l0.7-0.5l0.2-0.8c0,0,0-2-0.2-3.2 C17.6-6.6,16-6.6,16-6.6H-0.6c0,0-1.6,0-1.8,1.2c-0.2,1.3-0.2,3.3-0.2,3.3l0.2,0.8l0.6,0.5L-2,4l-1,2.8l-0.5-0.2l-0.3,0.1v-2 C-3.8,4.5-4,4.4-4.1,4.4h-1.4c-0.2,0-0.4,0.1-0.4,0.4v3c0,0.2,0.1,0.4,0.4,0.4h1.4c0.2,0,0.4-0.2,0.4-0.4V7.1l0.3-0.2L-3.1,7 l-0.1,0.8l-0.7,1.4l-0.6,2l-0.1,1.3c0,0-0.1,2.1-0.1,2.3c0,0.2,0.3,1.3,0.3,1.3s0,0.1-0.3,0.2C-5.1,16.5-5,17.6-5,17.6S-5,18.9-5,19 c0,0.1,0.2,0.3,0.5,0.5c0,0.4-0.1,3,0.1,3.2c0.1,0.5,0.5,0.7,0.5,0.7h3c0,0,0.5-0.1,0.6-0.5c0.1-0.3,0.2-1.1,0.2-1.1l0.2-1.8 c1.4,0.1,2.8,0.2,3.6,0.2h8.2c0.8-0.1,2.2-0.1,3.6-0.2l0.2,1.8c0,0,0.2,0.8,0.2,1.1c0.1,0.4,0.6,0.5,0.6,0.5h3c0,0,0.4-0.2,0.4-0.7 c0.1-0.2,0.1-2.8,0.1-3.2c0.2-0.1,0.5-0.4,0.5-0.5c0.1-0.1,0.1-1.4,0.1-1.4s0.1-1.1-0.4-1.2c-0.4-0.1-0.3-0.2-0.3-0.2 s0.3-1.2,0.3-1.3c0-0.2-0.1-2.3-0.1-2.3l-0.1-1.3l-0.6-1.9l-0.7-1.4l-0.1-0.8L19,7l0.3,0.1v0.6c0,0.2,0.1,0.4,0.4,0.4H21 c0.2,0,0.4-0.2,0.4-0.4v-3C21.4,4.5,21.2,4.4,21,4.4z M9.4-4.9h0.9c0.2,0,0.5,0.1,0.5,0.3c0,0.1-0.2,0.3-0.5,0.3H9.4 c-0.2,0-0.4-0.1-0.4-0.3C9-4.7,9.1-4.9,9.4-4.9z M7-4.9h0.9c0.2,0,0.5,0.1,0.5,0.3c0,0.1-0.2,0.3-0.5,0.3H7c-0.2,0-0.4-0.1-0.4-0.3 C6.6-4.7,6.7-4.9,7-4.9z M4.7-4.9h0.9c0.2,0,0.5,0.1,0.5,0.3c0,0.1-0.2,0.3-0.5,0.3H4.7c-0.2,0-0.5-0.1-0.5-0.3 C4.3-4.7,4.5-4.9,4.7-4.9z M-2-2.5C-2-2.5-2-2.5-2-2.5L-2-2.5C-2-4-0.8-5.4,0.8-5.4c1.4,0,2.5,1,2.8,2.4l0,0v0.1h13.5v0.8H4.8 C4.7-2.3,4.5-2.5,4.2-2.5h-5.8L-2-2.5z M-3.5,12.1c0-0.2,0.1-0.4,0.4-0.4h0.3c0.2,0,0.4,0.2,0.4,0.4v0.8c0,0.2-0.1,0.4-0.4,0.4h-0.3 c-0.2,0-0.4-0.1-0.4-0.4V12.1z M-2.5,15.1c0,0.2-0.1,0.4-0.4,0.4h-0.3c-0.2,0-0.4-0.1-0.4-0.4v-0.8c0-0.2,0.1-0.4,0.4-0.4h0.3 c0.2,0,0.4,0.2,0.4,0.4V15.1z M-2.4,12.1c0-0.2,0.1-0.4,0.4-0.4h1.2c0.2,0,0.4,0.2,0.4,0.4v0.8c0,0.2-0.1,0.4-0.4,0.4H-2 c-0.2,0-0.4-0.1-0.4-0.4V12.1z M-0.5,15.1c0,0.2-0.1,0.4-0.4,0.4H-2c-0.2,0-0.4-0.1-0.4-0.4v-0.8c0-0.2,0.1-0.4,0.4-0.4h1.2 c0.2,0,0.4,0.2,0.4,0.4V15.1z M-0.4,12.9v-0.8c0-0.2,0.1-0.4,0.4-0.4h1.2c0.2,0,0.4,0.2,0.4,0.4v0.8c0,0.2-0.1,0.4-0.4,0.4H0 C-0.2,13.2-0.4,13-0.4,12.9z M1.5,15.1c0,0.2-0.1,0.4-0.4,0.4h-1.2c-0.2,0-0.4-0.1-0.4-0.4v-0.8c0-0.2,0.1-0.4,0.4-0.4h1.2 c0.2,0,0.4,0.2,0.4,0.4V15.1z M16.4,15.2c0,0.2-0.1,0.4-0.4,0.4h-1.2c-0.2,0-0.4-0.2-0.4-0.4v-0.8c0-0.2,0.1-0.4,0.4-0.4H16 c0.2,0,0.4,0.1,0.4,0.4V15.2z M14.5,13v-0.8c0-0.2,0.2-0.4,0.4-0.4h1.2c0.2,0,0.4,0.1,0.4,0.4V13c0,0.2-0.1,0.4-0.4,0.4h-1.2 C14.7,13.4,14.5,13.2,14.5,13z M-2.3,7.6c-0.4-0.4,1.9-6.1,1.9-6.1s4.9-0.4,8.1-0.4h0.3c3.2-0.1,8,0.4,8,0.4s2.3,5.7,1.9,6.1 C17.4,8-1.9,8-2.3,7.6z M16.6,12.3c0-0.2,0.1-0.4,0.4-0.4h1.2c0.2,0,0.4,0.1,0.4,0.4V13c0,0.2-0.1,0.4-0.4,0.4h-1.2 c-0.2,0-0.4-0.1-0.4-0.4V12.3z M18.4,15.2c0,0.2-0.2,0.4-0.4,0.4h-1.1c-0.2,0-0.4-0.2-0.4-0.4v-0.8c0-0.2,0.1-0.4,0.4-0.4h1.2 c0.2,0,0.4,0.1,0.4,0.4L18.4,15.2L18.4,15.2z M19.6,15.2c0,0.2-0.2,0.4-0.4,0.4h-0.3c-0.2,0-0.4-0.2-0.4-0.4v-0.8 c0-0.2,0.1-0.4,0.4-0.4h0.3c0.2,0,0.4,0.1,0.4,0.4V15.2z M18.9,11.9h0.3c0.2,0,0.4,0.1,0.4,0.4V13c0,0.2-0.2,0.4-0.4,0.4h-0.3 c-0.2,0-0.4-0.1-0.4-0.4v-0.8C18.5,12.1,18.7,11.9,18.9,11.9z"/>
</svg>