<svg version="1.1" xmlns="http://www.w3.org/2000/svg" xmlns:xlink="http://www.w3.org/1999/xlink" x="0px" y="0px"  width="30px" height="30px" viewBox="-8.4 -6 30 30" enable-background="new -8.4 -6 30 30" xml:space="preserve" preserveAspectRatio="xMinYMin meet">
	<path fill="#007DC3" d="M16.1-4.5c0-0.7-0.7-1.5-1.3-1.5H-1.1c-0.7,0-1.4,0.8-1.4,1.5l-0.1,1.7h18.8L16.1-4.5z M2.9-5h2.4v0.4H2.9 V-5z M5.3-4H2.9v-0.4h2.4V-4z M8-4c0,0.2-0.2,0.4-0.4,0.4H6C5.8-3.5,5.6-3.8,5.6-4v-1c0-0.2,0.2-0.4,0.4-0.4h1.6C7.8-5.3,8-5.2,8-5 L8-4L8-4z M8.3-5h2.4v0.4H8.3V-5z M10.7-4H8.3v-0.4h2.4L10.7-4L10.7-4z M6.2,5.5h1.1C8,5.5,8.5,5,8.5,4.3v-4c0-0.6-0.5-1.1-1.1-1.1 H6.2C5.6-0.8,5-0.2,5,0.5v4C5,5,5.6,5.5,6.2,5.5z M16.2-2.5c0,0-18.9,0.1-18.8,0l-0.6,10l0.6,5.4c0,0.7,0.5,1.2,1.2,1.2h1.3v2.6h1.4 v-1.2h1.4v-1.4h7.8v1.4h1.4v1.2h1.4v-2.6h1.4c0.7,0,1.2-0.5,1.2-1.2l0.7-5.5L16.2-2.5z M-0.9,8.8c-0.3,0-0.5-0.2-0.5-0.5 s0.2-0.5,0.5-0.5c0.3,0,0.6,0.2,0.6,0.5S-0.6,8.8-0.9,8.8z M0.2,8.2c0-0.5,0.4-1,1-1c0.5,0,1,0.5,1,1c0,0.5-0.4,1-1,1 C0.6,9.2,0.2,8.7,0.2,8.2z M2.8,4.5c0,0.7-0.5,1.2-1.1,1.2h-2.3c-0.7,0-1.2-0.5-1.2-1.2V0.3c0-0.7,0.5-1.2,1.2-1.2h2.3 c0.7,0,1.1,0.5,1.1,1.2V4.5z M9.4,13.4H4.1v-15h5.3V13.4z M11.3,8.2c0-0.5,0.5-1,1-1s1,0.5,1,1c0,0.5-0.5,1-1,1S11.3,8.7,11.3,8.2z  M14.2,8.8c-0.3,0-0.5-0.2-0.5-0.5s0.2-0.5,0.5-0.5c0.3,0,0.5,0.2,0.5,0.5C14.8,8.5,14.5,8.8,14.2,8.8z M15.1,4.7 c0,0.7-0.5,1.2-1.2,1.2h-2.3c-0.7,0-1.2-0.5-1.2-1.2V0.5c0-0.7,0.5-1.2,1.2-1.2h2.3c0.7,0,1.2,0.5,1.2,1.2V4.7z M17.6,22.2l-1.1-1.9 h-1.1l-0.6-1h1.1l-1-1.7h-1.1l-0.3-0.5H12l0.3,0.5H1l0.3-0.5h-1.6l-0.3,0.5h-1.1l-1,1.7h1.1l-0.6,1h-1.1l-1.1,1.9h1.2l-1,1.8h2.9 l0.8-1.8h14.1l0.8,1.8h2.9l-1.1-1.8H17.6z M-0.1,20.3l0.4-1h12.4l0.5,1H-0.1z"/>
</svg>