<svg version="1.1" xmlns="http://www.w3.org/2000/svg" xmlns:xlink="http://www.w3.org/1999/xlink" x="0px" y="0px"  width="30px" height="30px" viewBox="-4.7 -5 30 30" enable-background="new -4.7 -5 30 30" xml:space="preserve" preserveAspectRatio="xMinYMin meet">
	<path fill="#781D7E" d="M18.8-2.3h-6L11.9-5H8.6l-1,2.8H2.2L1.4-0.7v15.2l2.3,2.1h13.7l1.8-2.3V-0.7L18.8-2.3z M17.5-0.3 c0.2,0,0.4,0.1,0.4,0.4c0,0.2-0.1,0.4-0.4,0.4S17.1,0.3,17.1,0C17-0.2,17.3-0.3,17.5-0.3z M7.1-0.9c0-0.3,0.2-0.5,0.5-0.5h5.3 c0.3,0,0.5,0.2,0.5,0.5v0.8c0,0.3-0.2,0.5-0.5,0.5H7.6c-0.2,0-0.5-0.2-0.5-0.5V-0.9z M3.4-0.3c0.2,0,0.4,0.1,0.4,0.4 c0,0.2-0.1,0.4-0.4,0.4S3,0.3,3,0C3-0.1,3.2-0.3,3.4-0.3z M2.4,1.2H18v0.3H2.4V1.2z M1.7,9.7V3.5c0-0.3-0.1-0.4,0-0.4 c0,0,0.2,0.1,0.2,0.4l1,6.7C3,10.6,1.7,10,1.7,9.7z M5.7,13.5c-0.5,0-0.9-0.4-0.9-0.9c0-0.5,0.4-0.9,0.9-0.9s0.9,0.4,0.9,0.9 C6.6,13.1,6.2,13.5,5.7,13.5z M10.1,9.9c0,0.3-0.2,0.5-0.5,0.5H4.4c-0.3,0-0.5-0.2-0.5-0.5L3,3.5c0-0.5,0.4-0.8,0.8-0.8h5.8 c0.3,0,0.5,0.2,0.5,0.5L10.1,9.9L10.1,9.9z M15.3,13.4c-0.5,0-0.9-0.4-0.9-0.9c0-0.5,0.4-0.9,0.9-0.9c0.5,0,0.9,0.4,0.9,0.9 C16.2,13,15.8,13.4,15.3,13.4z M17,10c0,0.3-0.2,0.5-0.5,0.5h-5.2c-0.3,0-0.5-0.2-0.5-0.5V3.5C10.8,3.2,11,3,11.4,3h5.9 C17.5,3,18,3.3,18,3.7L17,10z M19,3.5v6.2c0,0.3-1.1,0.9-1.1,0.5l0.9-6.7C18.9,3,19,3,19,3S19,3.2,19,3.5z M4.5,18.9h11.9v1.2H4.5 V18.9z M3.8,17l-0.5-0.3v0.6l0.5,0.3h1.4v1h10.2v-1h1.9l0.6-0.3v-0.6L17.4,17H3.8L3.8,17z M17.6,23.8l-0.8-1.3h-0.8l-0.4-0.7h0.8 l-0.7-1h-0.8l-0.2-0.4h-1l0.2,0.4H6.5l0.2-0.4H5.6l-0.2,0.4H4.7l-0.6,1h0.8l-0.4,0.7H3.7L3,23.8h0.8L3.1,25H5l0.5-1.2H15l0.6,1.2h2 l-0.7-1.2H17.6z M5.9,22.5l0.3-0.7h8.3l0.3,0.7H5.9z"/>
</svg>