<svg version="1.1" xmlns="http://www.w3.org/2000/svg" xmlns:xlink="http://www.w3.org/1999/xlink" x="0px" y="0px"  width="30px" height="30px" viewBox="-8.8 -5.9 30 30" enable-background="new -8.8 -5.9 30 30" xml:space="preserve" preserveAspectRatio="xMinYMin meet">
	<path fill="#3B6E8F" d="M12.4,17.1v-0.8h0.7l1.7-3.5V2.4H-2.5v10.4l1.6,3.5h0.8v0.8h1.2v-1.2h0.6l0.8-1.3v-1.3h1.1V3.9 c0-0.3,0.2-0.3,0.7-0.3c0.1,0,1.3,0,3.7,0c0.5,0,0.8-0.1,0.8,0.4v9.3h1v1.3l0.8,1.3h0.7v1.2H12.4L12.4,17.1z M-0.6,7.2 c-0.1,0-0.2-0.2-0.2-0.3V3.8c0-0.1,0.2-0.2,0.2-0.2h2.6c0.1,0,0.2,0.1,0.2,0.2v3.2c0,0.1-0.1,0.3-0.2,0.3H-0.6L-0.6,7.2z M1.7,11.4 c-0.5,0-0.8-0.4-0.8-0.8s0.4-0.8,0.8-0.8c0.4,0,0.8,0.4,0.8,0.8S2.1,11.4,1.7,11.4z M10.3,11.4c-0.4,0-0.8-0.4-0.8-0.8 s0.4-0.8,0.8-0.8c0.5,0,0.8,0.4,0.8,0.8C11.2,11,10.8,11.4,10.3,11.4z M9.9,7.2c-0.1,0-0.2-0.2-0.2-0.3V3.8c0-0.1,0.2-0.2,0.2-0.2 h2.6c0.1,0,0.2,0.1,0.2,0.2v3.2c0,0.1-0.1,0.3-0.2,0.3H9.9z M14.1,0.2c-1.1-0.8-2-0.9-3.9-1.2L6.4-1.3v-1.5c0,0,0.3,0,0.4,0V-4H6.4 v-0.7h1.3c-0.1,0,1.6,0.2,2.3,0.6C10-4,10.2-4,10.2-4c0.1-0.1,0.5-0.6,0.5-0.6c-0.4-0.4-0.8-0.9-1-0.9L7.6-5.9H4.3L2.5-5.6 c-0.1,0-1,0.8-1,1L2.1-4c0,0,0.1-0.1,0.3-0.2C3-4.4,3.6-4.6,4.2-4.6l1.4-0.1V-4H5.3v1.2h0.4v1.5L1.4-1C0.6-0.9-1-0.8-2.1,0.2 c-0.5,0.4-0.5,1.7-0.5,1.7h17.3C14.7,2,14.7,0.5,14.1,0.2z M2.4,1.4h-2.9c0,0,0-0.4,0-0.7s0-0.4,0.3-0.5c1.5-0.5,1.9-0.4,2.3-0.4 c0.2,0,0.3,0.1,0.3,0.2V1.4z M8.7,0.8c0,0.4-0.3,0.7-0.7,0.7H4.2c-0.4,0-0.7-0.3-0.7-0.7V0.5c0-0.5,0.3-0.8,0.7-0.8h3.9 c0.4,0,0.7,0.3,0.7,0.7V0.8z M12.7,1.4h-3V0.2C9.8,0,9.9-0.1,10.2-0.1c0.5,0,0.8-0.1,2.3,0.4c0.3,0.1,0.3,0.2,0.3,0.5 C12.7,1.1,12.7,1.4,12.7,1.4z M6.9,7.5c0.4,0,0.7-0.3,0.7-0.7v-2c0-0.4-0.3-0.7-0.7-0.7H5c-0.4,0-0.7,0.3-0.7,0.7v2 c0,0.4,0.3,0.7,0.7,0.7H6.9z M2.7,13.6h6.6v1.3H2.7V13.6z M4.5,0c0.3,0,0.5,0.2,0.5,0.5S4.8,1.1,4.5,1.1S4,0.9,4,0.5 C3.9,0.3,4.2,0,4.5,0z M7.8,0c0.3,0,0.5,0.3,0.5,0.6c0,0.3-0.2,0.5-0.5,0.5c-0.3,0-0.5-0.2-0.5-0.5C7.2,0.3,7.5,0,7.8,0z M16.2,22.5 l-1-1.7h-1.1l-0.5-0.9h1l-0.9-1.5h-1l-0.3-0.5H11l0.2,0.5H1l0.2-0.5h-1.5l-0.3,0.5h-0.9l-0.9,1.5h1.1l-0.5,0.9h-1.1l-1,1.7h1.1 l-1,1.6h2.7l0.8-1.6h12.9l0.8,1.6H16l-1-1.6H16.2z M0,20.7l0.4-0.9h11.4l0.4,0.9H0z"/>
</svg>