<svg version="1.1" xmlns="http://www.w3.org/2000/svg" xmlns:xlink="http://www.w3.org/1999/xlink" x="0px" y="0px"  width="30px" height="30px" viewBox="-9.1 -5.8 30 30" enable-background="new -9.1 -5.8 30 30" xml:space="preserve" preserveAspectRatio="xMinYMin meet">
	<path fill="#5E9732" d="M-2.7,18.6h2.1v-3.4h13v3.4h1.9c0,0,0.2-8.1,0.3-8.5c0.1-0.5,0-1.4,0-1.6c0-0.2-1.4-9.5-1.5-10.1 c-0.1-0.6-0.9-0.9-1.4-0.9H6.1v-1.9l0.4-0.4v-0.9H5.7H5v0.9l0.4,0.4v1.9H0c-0.5,0-1.3,0.3-1.3,0.9c-0.1,0.6-1.5,10-1.5,10.1 c0,0.2-0.1,1.2,0,1.6C-3,10.5-2.7,18.6-2.7,18.6z M0.5,14.2c-0.5,0-0.8-0.4-0.8-0.8c0-0.4,0.4-0.8,0.8-0.8c0.4,0,0.8,0.4,0.8,0.8 C1.2,13.9,0.9,14.2,0.5,14.2z M0.5,12.4c-0.5,0-0.8-0.4-0.8-0.8c0-0.4,0.4-0.8,0.8-0.8c0.4,0,0.8,0.4,0.8,0.8 C1.2,12,0.9,12.4,0.5,12.4z M11.1,14.3c-0.4,0-0.8-0.4-0.8-0.8c0-0.5,0.4-0.8,0.8-0.8c0.5,0,0.8,0.4,0.8,0.8 C11.9,13.9,11.5,14.3,11.1,14.3z M11.1,12.4c-0.4,0-0.8-0.4-0.8-0.8c0-0.4,0.4-0.8,0.8-0.8c0.5,0,0.8,0.4,0.8,0.8 C11.9,12,11.5,12.4,11.1,12.4z M11.7,1h0.8c0.1,0,0.2,0.4,0.2,0.4s0.9,7.1,0.9,7.3c0,0.2,0.1,0.4-0.2,0.5c-0.1,0.1-0.6,0.1-0.8,0 c-0.1-0.1-0.1-0.5-0.1-0.5l-0.8-7.3V1z M5.7-1.8c0.3,0,0.6,0.3,0.6,0.6c0,0.3-0.2,0.6-0.6,0.6c-0.3,0-0.5-0.3-0.5-0.6 C5.2-1.5,5.4-1.8,5.7-1.8z M0.6,0.6C0.8,0,1.3-0.1,1.8-0.1h4h4c0.6,0,1,0.1,1.2,0.8c0.1,0.1,0.1,0.2,0.2,1H0.5 C0.6,0.9,0.6,0.8,0.6,0.6z M0.4,2.1h10.8C11.5,4.4,12,8.5,12,8.8c0,0.3-0.1,0.8-1,0.8c-0.9,0-5.2,0-5.2,0s-4.3,0-5.2,0s-1-0.5-1-0.8 S0.1,4.4,0.4,2.1z M-1.3,1.4c0,0,0.1-0.4,0.2-0.4h0.8l0.1,0.3L-1,8.7c0,0,0,0.4-0.2,0.5c-0.2,0.1-0.8,0-0.8,0 C-2.1,9-2.2,8.8-2.2,8.7C-2.2,8.5-1.3,1.4-1.3,1.4z M-3.6,24.2h1.5l2-2.9H-1L-3.6,24.2z M12.6,21.2h-0.9l2.2,3h1.5L12.6,21.2z  M11.8,15.9H9.7v1.4h-4h-4v-1.4h-2v4.2h0.4v1h0.5V19h0.2v0.6h4V19h0.8h0.8v0.6h4V19h0.2V21h0.5v-1h0.5L11.8,15.9L11.8,15.9z M2.1,16 h7.3v0.9H2.1V16z"/>
</svg>