<svg version="1.1" xmlns="http://www.w3.org/2000/svg" xmlns:xlink="http://www.w3.org/1999/xlink" x="0px" y="0px"  width="30px" height="30px" viewBox="-4.5 -5 30 30" enable-background="new -4.5 -5 30 30" xml:space="preserve" preserveAspectRatio="xMinYMin meet">
	<path fill="#F58426" d="M19.6,2.1h-18v12.3h6.5H13h6.6L19.6,2.1z M6.8,8c0,0.4-0.3,0.7-0.7,0.7H3.5C3.1,8.7,2.8,8.3,2.8,8V4.5 c0-0.4,0.4-0.7,0.7-0.7h2.5c0.4,0,0.7,0.4,0.7,0.7V8z M13,13.7H8.3V2.5H13L13,13.7L13,13.7z M18.3,8c0,0.4-0.4,0.7-0.7,0.7H15 c-0.4,0-0.7-0.4-0.7-0.7V4.5c0-0.4,0.4-0.7,0.7-0.7h2.5c0.4,0,0.7,0.4,0.7,0.7V8z M9.7,6.7h1.9c0.4,0,0.7-0.4,0.7-0.7V4 c0-0.4-0.4-0.7-0.7-0.7H9.7C9.2,3.3,8.9,3.6,8.9,4v1.9C8.9,6.3,9.3,6.7,9.7,6.7z M11.6,7.7H9.8C9.3,7.7,9,8,9,8.4v1.9 c0,0.4,0.3,0.7,0.7,0.7h1.9c0.4,0,0.7-0.4,0.7-0.7V8.4C12.4,8,12,7.7,11.6,7.7z M19.6,1.8l0.1-0.2c-0.1-1,0.1-1.1-1-1.6 c-1.5-0.7-2.2-1-4-1.3C11.3-1.7,8.4-2,4.6-0.9C2.7-0.4,2-0.3,1.7,0.6C1.4,1.2,1.6,1.8,1.7,1.8H19.6z M18.4,0.3 c0.2,0,0.4,0.1,0.4,0.4c0,0.2-0.1,0.4-0.4,0.4C18.1,1.2,18,1,18,0.8C17.9,0.6,18.1,0.3,18.4,0.3z M17.2,0.3c0.2,0,0.4,0.1,0.4,0.4 c0,0.2-0.1,0.4-0.4,0.4c-0.2,0-0.4-0.1-0.4-0.4C16.9,0.5,17,0.3,17.2,0.3z M16.1,0.3c0.2,0,0.4,0.1,0.4,0.4c0,0.2-0.1,0.4-0.4,0.4 c-0.2,0-0.4-0.1-0.4-0.4C15.7,0.5,15.9,0.3,16.1,0.3z M15,0.3c0.2,0,0.4,0.1,0.4,0.4c0,0.2-0.1,0.4-0.4,0.4S14.6,1,14.6,0.8 C14.6,0.5,14.8,0.3,15,0.3z M13.9,0.3c0.2,0,0.4,0.1,0.4,0.4c0,0.2-0.1,0.4-0.4,0.4c-0.2,0-0.4-0.1-0.4-0.4 C13.5,0.5,13.7,0.3,13.9,0.3z M7.9,0c0-0.4,0.4-0.7,0.7-0.7h3.7c0.4,0,0.7,0.4,0.7,0.7v0.4c0,0.4-0.3,0.7-0.7,0.7H8.6 c-0.4,0-0.7-0.4-0.7-0.7V0L7.9,0z M7.1,0.3c0.2,0,0.4,0.1,0.4,0.4c0,0.2-0.1,0.4-0.4,0.4S6.7,1,6.7,0.8C6.7,0.5,6.8,0.3,7.1,0.3z  M5.9,0.3c0.2,0,0.4,0.1,0.4,0.4c0,0.2-0.1,0.4-0.4,0.4S5.6,1,5.6,0.8C5.6,0.5,5.7,0.3,5.9,0.3z M4.9,0.3c0.2,0,0.4,0.1,0.4,0.4 c0,0.2-0.1,0.4-0.4,0.4C4.7,1.2,4.5,1,4.5,0.8C4.4,0.5,4.7,0.3,4.9,0.3z M3.8,0.3c0.2,0,0.4,0.1,0.4,0.4c0,0.2-0.1,0.4-0.4,0.4 c-0.2,0-0.4-0.2-0.4-0.4C3.4,0.5,3.5,0.3,3.8,0.3z M2.6,0.3C2.9,0.3,3,0.5,3,0.7c0,0.2-0.1,0.4-0.4,0.4C2.4,1.2,2.3,1,2.3,0.8 C2.3,0.5,2.4,0.3,2.6,0.3z M18.7,21.7h-1l-0.4-0.9h0.9l-0.8-1.4h-0.9l-0.2-0.4h-1.3l0.2,0.4H6l0.2-0.4H4.9l-0.2,0.4H3.8l-0.8,1.4 h0.9l-0.4,0.9h-1l-0.9,1.6h1L1.7,25h2.4l0.7-1.6h11.5l0.7,1.6h2.4l-0.8-1.6h1L18.7,21.7z M5.6,21.7l0.4-0.9h9.6l0.4,0.9H5.6z  M2.2,14.7v1.8l0.4,0.6H5v1.5h1v-1h1.3v-1.8h6.8v1.8h1.3v1h1V17h2.5l0.4-0.6v-1.8L2.2,14.7z M3.1,16.3c-0.3,0-0.5-0.2-0.5-0.5 s0.2-0.5,0.5-0.5c0.3,0,0.5,0.2,0.5,0.5S3.4,16.3,3.1,16.3z M4.4,16.3c-0.3,0-0.5-0.2-0.5-0.5s0.2-0.5,0.5-0.5 c0.3,0,0.5,0.2,0.5,0.5S4.7,16.3,4.4,16.3z M16.9,16.3c-0.3,0-0.5-0.2-0.5-0.5s0.2-0.5,0.5-0.5c0.3,0,0.5,0.2,0.5,0.5 S17.2,16.3,16.9,16.3z M18.2,16.3c-0.3,0-0.5-0.2-0.5-0.5s0.2-0.5,0.5-0.5s0.5,0.2,0.5,0.5C18.7,16.1,18.4,16.3,18.2,16.3z M-2.1,25 V-0.7C-2.1-4.2-0.3-5,1.6-5c0,0,15.2,0,16.3,0c3.3,0,5.2,0.9,5.2,3.9V25h-2V-1.2C21-1.8,21-3,19.5-3H2C-0.2-3-0.1-1.8-0.1-1v25.9 L-2.1,25L-2.1,25z"/>
</svg>